<?xml version="1.0" encoding="utf-8"?>
<svg xmlns="http://www.w3.org/2000/svg">
  <defs>
    <symbol id="icon-hamburger" viewBox="0 0 24 24">
      <path d="M21 18H3V16H21V18ZM21 13H3V11H21V13ZM21 8H3V6H21V8Z" />
    </symbol>
    <symbol id="icon-facebook" viewBox="0 0 24 24">
      <path d="M2.00195 12.002C2.00312 16.9214 5.58036 21.1101 10.439 21.881V14.892H7.90195V12.002H10.442V9.80204C10.3284 8.75958 10.6845 7.72064 11.4136 6.96698C12.1427 6.21332 13.1693 5.82306 14.215 5.90204C14.9655 5.91417 15.7141 5.98101 16.455 6.10205V8.56104H15.191C14.7558 8.50405 14.3183 8.64777 14.0017 8.95171C13.6851 9.25566 13.5237 9.68693 13.563 10.124V12.002H16.334L15.891 14.893H13.563V21.881C18.8174 21.0506 22.502 16.2518 21.9475 10.9611C21.3929 5.67041 16.7932 1.73997 11.4808 2.01722C6.16831 2.29447 2.0028 6.68235 2.00195 12.002Z" />
    </symbol>
    <symbol id="icon-instagram" viewBox="0 0 24 24">
      <path d="M12.002 21.041C9.54195 21.041 9.25195 21.028 8.29195 20.986C7.54332 20.9614 6.80439 20.8092 6.10695 20.536C4.90026 20.0664 3.94609 19.1119 3.47695 17.905C3.21426 17.205 3.07257 16.4655 3.05795 15.718C3.00195 14.76 3.00195 14.446 3.00195 12.005C3.00195 9.538 3.01495 9.25 3.05795 8.295C3.07289 7.54853 3.21457 6.81001 3.47695 6.111C3.94558 4.90253 4.9013 3.94718 6.10995 3.479C6.8086 3.21521 7.5473 3.07315 8.29395 3.059C9.24895 3.005 9.56295 3.005 12.002 3.005C14.482 3.005 14.767 3.018 15.712 3.059C16.4605 3.07327 17.2012 3.21531 17.902 3.479C19.1103 3.94771 20.0658 4.90288 20.535 6.111C20.8021 6.8202 20.9445 7.57026 20.956 8.328C21.012 9.28601 21.012 9.59901 21.012 12.039C21.012 14.479 20.998 14.799 20.956 15.746C20.9411 16.4942 20.799 17.2344 20.536 17.935C20.0656 19.1427 19.11 20.0976 17.902 20.567C17.2022 20.8292 16.4631 20.9709 15.716 20.986C14.761 21.041 14.448 21.041 12.002 21.041ZM11.968 4.588C9.52195 4.588 9.26795 4.6 8.31295 4.643C7.74294 4.65056 7.17843 4.75575 6.64395 4.954C5.85471 5.25601 5.23018 5.878 4.92495 6.666C4.72517 7.2063 4.61996 7.77698 4.61395 8.353C4.56095 9.322 4.56095 9.576 4.56095 12.005C4.56095 14.405 4.56995 14.696 4.61395 15.659C4.62291 16.2292 4.72805 16.7938 4.92495 17.329C5.23063 18.1165 5.85505 18.738 6.64395 19.04C7.17807 19.2396 7.7428 19.3448 8.31295 19.351C9.28095 19.407 9.53595 19.407 11.968 19.407C14.421 19.407 14.675 19.395 15.622 19.351C16.1924 19.3441 16.7573 19.2389 17.292 19.04C18.0764 18.7354 18.6969 18.1153 19.002 17.331C19.2014 16.7903 19.3065 16.2193 19.313 15.643H19.324C19.367 14.687 19.367 14.432 19.367 11.989C19.367 9.54601 19.356 9.289 19.313 8.334C19.304 7.76446 19.1988 7.20052 19.002 6.666C18.6976 5.88058 18.077 5.2593 17.292 4.954C16.7574 4.75475 16.1924 4.64953 15.622 4.643C14.655 4.588 14.402 4.588 11.968 4.588ZM12.002 16.624C10.1319 16.6252 8.44537 15.4997 7.72882 13.7725C7.01226 12.0452 7.40686 10.0563 8.72858 8.73347C10.0503 7.4106 12.0388 7.01428 13.7667 7.72934C15.4946 8.4444 16.6215 10.13 16.622 12C16.6192 14.5511 14.553 16.619 12.002 16.624ZM12.002 8.998C10.3451 8.998 9.00195 10.3412 9.00195 11.998C9.00195 13.6549 10.3451 14.998 12.002 14.998C13.6588 14.998 15.002 13.6549 15.002 11.998C14.9981 10.3427 13.6572 9.00185 12.002 8.998ZM16.802 8.28501C16.2074 8.2828 15.7269 7.79959 15.728 7.20501C15.7291 6.61043 16.2114 6.12901 16.806 6.12901C17.4005 6.12901 17.8828 6.61042 17.884 7.205C17.8842 7.49187 17.7702 7.76703 17.5672 7.96968C17.3642 8.17234 17.0888 8.2858 16.802 8.28501Z" />
    </symbol>
    <symbol id="icon-youtube" viewBox="0 0 24 24">
      <path d="M12.006 19.012H11.986C11.924 19.012 5.721 19 4.156 18.575C3.29543 18.3432 2.62335 17.6707 2.392 16.81C2.11058 15.2224 1.97469 13.6123 1.986 12C1.97873 10.385 2.11831 8.77271 2.403 7.183C2.64071 6.32151 3.30983 5.64595 4.169 5.4C5.691 5 11.723 5 11.979 5H12C12.063 5 18.282 5.012 19.831 5.437C20.6898 5.67001 21.3605 6.3411 21.593 7.2C21.8834 8.79354 22.0197 10.4113 22 12.031C22.007 13.644 21.8671 15.2543 21.582 16.842C21.3477 17.7016 20.6752 18.3726 19.815 18.605C18.295 19.008 12.262 19.012 12.006 19.012ZM10.006 9.005L10.001 15.005L15.213 12.005L10.006 9.005Z" />
    </symbol>
    <symbol id="icon-arrow-left" viewBox="0 0 16 13">
      <path d="M3.83 5.5L7.41 1.91L6 0.5L0 6.5L6 12.5L7.41 11.09L3.83 7.5H16V5.5H3.83Z" />
    </symbol>
    <symbol id="icon-arrow-right" viewBox="0 0 16 13">
      <path d="M12.17 5.5L8.59 1.91L10 0.5L16 6.5L10 12.5L8.59 11.09L12.17 7.5H0V5.5H12.17Z" />
    </symbol>
    <symbol id="quote-symbol" width="72" height="73" viewBox="0 0 72 73">
      <path d="M48.0011 72.4999C48.0011 66.1964 46.7595 59.9547 44.3473 54.1311C41.9351 48.3074 38.3994 43.016 33.9422 38.5588C29.485 34.1015 24.1935 30.5659 18.3698 28.1537C12.5462 25.7414 6.30444 24.4999 0.000976562 24.4999L0.000977507 46.0999C3.46788 46.0999 6.90084 46.7827 10.1038 48.1095C13.3069 49.4362 16.2172 51.3808 18.6686 53.8323C21.1201 56.2837 23.0647 59.194 24.3915 62.397C25.7182 65.6 26.401 69.033 26.401 72.4999H48.0011Z"/>
      <path d="M72.0001 48.5C72.0001 42.1966 70.7586 35.9548 68.3463 30.1312C65.9341 24.3076 62.3984 19.0161 57.9412 14.5589C53.484 10.1017 48.1925 6.56601 42.3689 4.15378C36.5452 1.74156 30.3035 0.5 24 0.5L24 22.1C27.4669 22.1 30.8999 22.7829 34.1029 24.1096C37.3059 25.4363 40.2162 27.3809 42.6677 29.8324C45.1191 32.2838 47.0638 35.1942 48.3905 38.3972C49.7172 41.6002 50.4001 45.0331 50.4001 48.5H72.0001Z"/>
    </symbol>
  </defs>
</svg>