<svg width="100%" height="100%" version="1.1" xmlns="http://www.w3.org/2000/svg" xmlns:xlink="http://www.w3.org/1999/xlink" xml:space="preserve" xmlns:serif="http://www.serif.com/" style="fill-rule:evenodd;clip-rule:evenodd;stroke-linejoin:round;stroke-miterlimit:2;">
    <defs>
        <symbol id="olly-richards-symbol-text" viewBox="0 0 290 65">
            <path d="M83.578,14.126C83.578,8.919 79.965,4.838 74.175,4.838C68.424,4.838 64.809,8.919 64.809,14.126C64.809,19.333 68.424,23.374 74.175,23.374C79.965,23.374 83.578,19.333 83.578,14.126M59.719,14.126C59.719,6.393 65.509,0.059 74.175,0.059C82.841,0.059 88.669,6.393 88.669,14.126C88.669,21.859 82.841,28.192 74.175,28.192C65.509,28.192 59.719,21.859 59.719,14.126" />
            <path d="M116.841,22.985L116.841,27.726L95.858,27.726L95.858,0.525L100.91,0.525L100.91,22.985L116.841,22.985Z" />
            <path d="M144.393,22.985L144.393,27.726L123.41,27.726L123.41,0.525L128.461,0.525L128.461,22.985L144.393,22.985Z" />
            <path d="M170.895,0.836L160.209,16.574L160.209,27.726L155.157,27.726L155.157,16.574L144.471,0.836L144.471,0.525L149.989,0.525L157.683,12.144L165.339,0.525L170.895,0.525L170.895,0.836Z" />
            <path d="M66.209,49.898L75.224,49.898C77.827,49.898 79.809,48.343 79.809,45.818C79.809,43.253 77.827,41.699 75.224,41.699L66.209,41.699L66.209,49.898ZM86.414,64.003L86.414,64.275L81.052,64.275L74.369,54.367L66.209,54.367L66.209,64.275L61.157,64.275L61.157,37.074L75.651,37.074C80.819,37.074 84.86,40.611 84.86,45.74C84.86,49.548 82.646,52.462 79.421,53.706L86.414,64.003Z" />
            <rect x="92.556" y="37.075" width="5.051" height="27.201"/>
            <path d="M104.834,50.675C104.834,42.865 110.274,36.608 118.862,36.608C124.652,36.608 129.043,39.523 130.986,43.564L126.75,46.012C125.507,43.214 122.708,41.387 118.979,41.387C113.228,41.387 109.925,45.507 109.925,50.675C109.925,55.804 113.345,59.923 119.095,59.923C122.864,59.923 125.7,58.097 126.945,55.338L131.179,57.786C129.237,61.828 124.807,64.742 118.979,64.742C110.39,64.742 104.834,58.486 104.834,50.675" />
            <path d="M162.345,37.074L162.345,64.275L157.294,64.275L157.294,52.657L142.917,52.657L142.917,64.275L137.864,64.275L137.864,37.074L142.917,37.074L142.917,47.916L157.294,47.916L157.294,37.074L162.345,37.074Z" />
            <path d="M187.642,54.367L182.668,42.865L177.734,54.367L187.642,54.367ZM197.241,63.926L197.241,64.275L191.878,64.275L189.585,58.913L175.791,58.913L173.46,64.275L168.096,64.275L168.096,63.926L180.181,37.074L185.195,37.074L197.241,63.926Z" />
            <path d="M208.044,49.898L217.059,49.898C219.663,49.898 221.644,48.343 221.644,45.818C221.644,43.253 219.663,41.699 217.059,41.699L208.044,41.699L208.044,49.898ZM228.25,64.003L228.25,64.275L222.887,64.275L216.204,54.367L208.044,54.367L208.044,64.275L202.992,64.275L202.992,37.074L217.486,37.074C222.655,37.074 226.696,40.611 226.696,45.74C226.696,49.548 224.481,52.462 221.256,53.706L228.25,64.003Z" />
            <path d="M254.596,50.675C254.596,45.468 250.827,41.815 245.464,41.815L239.442,41.815L239.442,59.535L245.464,59.535C250.827,59.535 254.596,55.843 254.596,50.675M259.648,50.675C259.648,58.408 253.547,64.275 245.464,64.275L234.391,64.275L234.391,37.074L245.464,37.074C253.547,37.074 259.648,42.942 259.648,50.675" />
            <path d="M265.011,60.856L267.459,56.62C270.024,59.029 273.365,60.079 277.718,60.079C282.031,60.079 284.596,58.564 284.596,56.038C284.596,54.25 283.275,53.822 276.708,52.968C271.113,52.191 265.4,51.374 265.4,45.429C265.4,40.066 270.063,36.609 276.901,36.609C283.003,36.609 286.928,39.367 288.521,42.787L284.362,45.041C283.469,42.787 281.021,41.232 276.708,41.232C272.278,41.232 270.452,42.864 270.452,45.08C270.452,46.983 271.967,47.567 277.641,48.343C283.624,49.12 289.608,49.703 289.608,55.882C289.608,61.672 284.401,64.742 277.485,64.742C272.744,64.742 268.508,63.615 265.011,60.856" />
            <path d="M33.315,33.562L18.888,33.562C18.888,23.334 10.567,15.013 0.34,15.013L0.34,0.586C18.522,0.586 33.315,15.379 33.315,33.562" />
            <path d="M33.315,64.208L18.888,64.208C18.888,53.98 10.567,45.659 0.34,45.659L0.34,31.233C18.522,31.233 33.315,46.025 33.315,64.208" />
        <symbol>
        <symbol id="olly-richards-symbol" viewBox="0 0 34 65">
            <path d="M33.315,33.562L18.888,33.562C18.888,23.334 10.567,15.013 0.34,15.013L0.34,0.586C18.522,0.586 33.315,15.379 33.315,33.562"/>
            <path d="M33.315,64.208L18.888,64.208C18.888,53.98 10.567,45.659 0.34,45.659L0.34,31.233C18.522,31.233 33.315,46.025 33.315,64.208"/>
        <symbol>
        <symbol id="olly-richards-text" viewBox="0 0 362 29">
            <path d="M24.565,14.126C24.565,8.919 20.952,4.838 15.162,4.838C9.411,4.838 5.796,8.919 5.796,14.126C5.796,19.333 9.411,23.374 15.162,23.374C20.952,23.374 24.565,19.333 24.565,14.126M0.706,14.126C0.706,6.393 6.496,0.059 15.162,0.059C23.827,0.059 29.656,6.393 29.656,14.126C29.656,21.859 23.827,28.192 15.162,28.192C6.496,28.192 0.706,21.859 0.706,14.126" />
            <path d="M57.828,22.985L57.828,27.726L36.845,27.726L36.845,0.525L41.897,0.525L41.897,22.985L57.828,22.985Z" />
            <path d="M85.379,22.985L85.379,27.726L64.396,27.726L64.396,0.525L69.448,0.525L69.448,22.985L85.379,22.985Z" />
            <path d="M111.881,0.836L101.196,16.574L101.196,27.726L96.143,27.726L96.143,16.574L85.458,0.836L85.458,0.525L90.976,0.525L98.669,12.144L106.325,0.525L111.881,0.525L111.881,0.836Z" />
            <path d="M137.652,13.377L146.667,13.377C149.271,13.377 151.252,11.822 151.252,9.297C151.252,6.732 149.271,5.178 146.667,5.178L137.652,5.178L137.652,13.377ZM157.858,27.482L157.858,27.754L152.495,27.754L145.812,17.846L137.652,17.846L137.652,27.754L132.6,27.754L132.6,0.553L147.094,0.553C152.263,0.553 156.304,4.089 156.304,9.219C156.304,13.027 154.089,15.941 150.864,17.185L157.858,27.482Z" />
            <rect x="163.999" y="0.554" width="5.051" height="27.201" />
            <path d="M176.278,14.154C176.278,6.344 181.717,0.087 190.306,0.087C196.095,0.087 200.486,3.002 202.429,7.043L198.193,9.491C196.95,6.693 194.152,4.866 190.422,4.866C184.671,4.866 181.368,8.986 181.368,14.154C181.368,19.283 184.788,23.402 190.538,23.402C194.308,23.402 197.143,21.576 198.388,18.817L202.623,21.265C200.68,25.307 196.25,28.221 190.422,28.221C181.833,28.221 176.278,21.965 176.278,14.154" />
            <path d="M233.788,0.553L233.788,27.754L228.738,27.754L228.738,16.136L214.36,16.136L214.36,27.754L209.308,27.754L209.308,0.553L214.36,0.553L214.36,11.395L228.738,11.395L228.738,0.553L233.788,0.553Z" />
            <path d="M259.086,17.846L254.111,6.343L249.177,17.846L259.086,17.846ZM268.684,27.405L268.684,27.754L263.321,27.754L261.028,22.392L247.234,22.392L244.903,27.754L239.539,27.754L239.539,27.405L251.625,0.553L256.638,0.553L268.684,27.405Z" />
            <path d="M279.487,13.377L288.502,13.377C291.106,13.377 293.088,11.822 293.088,9.297C293.088,6.732 291.106,5.178 288.502,5.178L279.487,5.178L279.487,13.377ZM299.693,27.482L299.693,27.754L294.33,27.754L287.647,17.846L279.487,17.846L279.487,27.754L274.435,27.754L274.435,0.553L288.929,0.553C294.098,0.553 298.139,4.089 298.139,9.219C298.139,13.027 295.924,15.941 292.699,17.185L299.693,27.482Z" />
            <path d="M326.039,14.154C326.039,8.947 322.271,5.294 316.908,5.294L310.885,5.294L310.885,23.014L316.908,23.014C322.271,23.014 326.039,19.322 326.039,14.154M331.092,14.154C331.092,21.887 324.99,27.754 316.908,27.754L305.834,27.754L305.834,0.553L316.908,0.553C324.99,0.553 331.092,6.421 331.092,14.154" />
            <path d="M336.454,24.335L338.902,20.099C341.467,22.508 344.808,23.558 349.161,23.558C353.474,23.558 356.04,22.042 356.04,19.517C356.04,17.729 354.719,17.301 348.151,16.447C342.556,15.669 336.843,14.853 336.843,8.908C336.843,3.545 341.507,0.088 348.344,0.088C354.446,0.088 358.371,2.846 359.964,6.266L355.805,8.52C354.912,6.266 352.464,4.711 348.151,4.711C343.721,4.711 341.895,6.343 341.895,8.559C341.895,10.462 343.41,11.045 349.084,11.822C355.068,12.599 361.051,13.182 361.051,19.361C361.051,25.151 355.844,28.221 348.928,28.221C344.187,28.221 339.951,27.094 336.454,24.335" />
        <symbol>
    </defs>
</svg>
